<mxfile host="app.diagrams.net" modified="2024-05-26T17:24:47.507Z" agent="Mozilla/5.0 (Macintosh; Intel Mac OS X 10_15_7) AppleWebKit/537.36 (KHTML, like Gecko) Chrome/124.0.0.0 Safari/537.36" version="24.4.8" etag="lKk-iAPVrWYYaDZ6giak" type="github">
  <diagram name="Page-1" id="sQxdQkaAVrwblzc2qR-y">
    <mxGraphModel>
      <root>
        <mxCell id="0" />
        <mxCell id="1" parent="0" />
        <mxCell id="2" value="Database" style="whiteSpace=wrap;strokeWidth=2;" vertex="1" parent="1">
          <mxGeometry x="130" width="80" height="34" as="geometry" />
        </mxCell>
        <mxCell id="3" value="API Gateway" style="ellipse;aspect=fixed;strokeWidth=2;whiteSpace=wrap;" vertex="1" parent="1">
          <mxGeometry x="117" y="84" width="105" height="105" as="geometry" />
        </mxCell>
        <mxCell id="4" value="Service 1" style="whiteSpace=wrap;strokeWidth=2;" vertex="1" parent="1">
          <mxGeometry y="239" width="80" height="34" as="geometry" />
        </mxCell>
        <mxCell id="5" value="Service 2" style="whiteSpace=wrap;strokeWidth=2;" vertex="1" parent="1">
          <mxGeometry x="130" y="239" width="80" height="34" as="geometry" />
        </mxCell>
        <mxCell id="6" value="Service N" style="whiteSpace=wrap;strokeWidth=2;" vertex="1" parent="1">
          <mxGeometry x="260" y="239" width="82" height="34" as="geometry" />
        </mxCell>
        <mxCell id="7" value="" style="curved=1;startArrow=none;endArrow=block;exitX=0.498095703125;exitY=0.9852941176470589;entryX=0.5033110119047619;entryY=-0.004761904761904762;" edge="1" parent="1" source="2" target="3">
          <mxGeometry relative="1" as="geometry">
            <Array as="points" />
          </mxGeometry>
        </mxCell>
        <mxCell id="8" value="" style="curved=1;startArrow=none;endArrow=block;exitX=0.0026785714285714286;exitY=0.7948137717320795;entryX=0.499365234375;entryY=-0.010799632352941176;" edge="1" parent="1" source="3" target="4">
          <mxGeometry relative="1" as="geometry">
            <Array as="points">
              <mxPoint x="40" y="214" />
            </Array>
          </mxGeometry>
        </mxCell>
        <mxCell id="9" value="" style="curved=1;startArrow=none;endArrow=block;exitX=0.5033110119047619;exitY=0.9965029761904762;entryX=0.498095703125;entryY=-0.010799632352941176;" edge="1" parent="1" source="3" target="5">
          <mxGeometry relative="1" as="geometry">
            <Array as="points" />
          </mxGeometry>
        </mxCell>
        <mxCell id="10" value="" style="curved=1;startArrow=none;endArrow=block;exitX=1.0039434523809523;exitY=0.7927337474243737;entryX=0.4958079268292683;entryY=-0.010799632352941176;" edge="1" parent="1" source="3" target="6">
          <mxGeometry relative="1" as="geometry">
            <Array as="points">
              <mxPoint x="301" y="214" />
            </Array>
          </mxGeometry>
        </mxCell>
      </root>
    </mxGraphModel>
  </diagram>
</mxfile>
